<svg xmlns="http://www.w3.org/2000/svg" viewBox="0 0 48 48"><title>876_ch_h</title><rect width="48" height="48" fill="none"/><path d="M32.82,16C31.76,10.34,26.2,6,19.5,6,12,6,6,11.37,6,18a11.33,11.33,0,0,0,3.76,8.3,6,6,0,0,1-2.18,4.19,8.84,8.84,0,0,0,6.16-1.65,15.32,15.32,0,0,0,2.26.74" fill="none" stroke="#555" stroke-linecap="round" stroke-linejoin="round" stroke-width="2"/><path d="M32.5,19C40,19,46,24.36,46,31a11.33,11.33,0,0,1-3.76,8.3,6,6,0,0,0,2.18,4.18,8.8,8.8,0,0,1-6.16-1.64A15,15,0,0,1,32.5,43C25,43,19,37.61,19,31S25,19,32.5,19Z" fill="none" stroke="#555" stroke-linecap="round" stroke-linejoin="round" stroke-width="2"/><line x1="28" y1="29" x2="37" y2="29" fill="none" stroke="#555" stroke-linecap="round" stroke-linejoin="round" stroke-width="2"/><line x1="28" y1="34" x2="32" y2="34" fill="none" stroke="#555" stroke-linecap="round" stroke-linejoin="round" stroke-width="2"/><line x1="36" y1="34" x2="36" y2="34" fill="none" stroke="#555" stroke-linecap="round" stroke-linejoin="round" stroke-width="2"/><line x1="15" y1="14.93" x2="24" y2="14.93" fill="none" stroke="#555" stroke-linecap="round" stroke-linejoin="round" stroke-width="2"/><line x1="15" y1="19.93" x2="19" y2="19.93" fill="none" stroke="#555" stroke-linecap="round" stroke-linejoin="round" stroke-width="2"/></svg>